<svg width="1370" height="1014" viewBox="0 0 1370 1014" fill="none" xmlns="http://www.w3.org/2000/svg">
<g clip-path="url(#clip0)">
<path d="M114.694 381.27C174.939 409.402 235.185 437.535 295.43 465.667C336.78 428.292 378.093 390.953 419.443 353.578C366.903 354.018 309.923 356.732 249.274 362.821C201.576 367.589 156.631 373.935 114.694 381.27Z" fill="#FFDBAB"/>
<path d="M419.443 391.136C378.204 426.091 337 461.045 295.76 495.963C295.65 485.84 295.54 475.753 295.43 465.63C336.78 428.255 378.093 390.916 419.443 353.541C419.443 366.085 419.443 378.629 419.443 391.136Z" fill="#A06D3A"/>
<path d="M295.76 496C236.396 467.978 177.031 439.955 117.666 411.933C116.675 401.7 115.684 391.503 114.694 381.27C174.939 409.402 235.185 437.535 295.43 465.667C295.54 475.753 295.65 485.877 295.76 496Z" fill="#A06D3A"/>
<path d="M154.539 24.2446C113.666 103.8 72.7568 183.355 31.8472 262.947C66.226 255.464 102.953 246.111 141.551 234.301C186.24 220.62 227.15 205.619 264.023 190.397C265.784 185.556 267.546 180.714 269.307 175.873C231.075 125.33 192.807 74.7873 154.539 24.2446Z" fill="#FFDBAB"/>
<path d="M10.2734 256.345C19.0791 258.545 27.8481 260.746 36.6538 262.947C75.949 183.355 115.244 103.8 154.54 24.2446C146.174 21.1637 137.846 18.0827 129.48 15.0017C89.7446 95.4371 50.009 175.909 10.2734 256.345Z" fill="#A06D3A"/>
<path d="M166.647 351.965C166.647 351.965 140.194 374.118 119.17 375.549C111.538 376.062 107.062 375.109 107.062 375.109C98.6235 373.275 95.4681 369.093 91.9091 370.634C88.7538 372.028 86.8459 377.273 87.9466 381.454C89.5243 387.359 96.2019 387.579 111.208 395.978C123.133 402.654 123.83 405.405 130.764 406.872C139.276 408.669 146.981 406.872 152.191 405.075C152.705 407.349 155.42 417.802 165.693 424.147C175.159 429.979 187.451 430.089 197.797 424.588C208.511 439.992 218.711 444.834 226.196 446.374C232.066 447.585 238.047 447.071 250.851 449.565C257.236 450.812 262.372 452.206 265.748 453.197C266.261 454.187 272.132 465.227 284.35 466.804C295.173 468.198 306.327 461.596 310.877 450.482C316.27 450.959 323.462 450.666 329.038 446.411C339.569 438.379 334.542 423.744 343.458 418.719C352.52 413.621 362.206 426.201 372.773 421.433C382.9 416.885 377.8 403.571 389.981 393.301C400.364 384.535 409.317 389.78 417.425 380.61C423.626 373.605 426.268 361.611 421.608 355.669C414.197 346.133 389.504 353.725 376.002 357.026C280.204 380.427 210.345 318.844 166.647 351.965Z" fill="#6CAA24"/>
<path d="M39.7724 269.511C29.3524 269.071 20.3999 273.913 16.951 275.857C8.0353 280.808 4.80655 285.723 2.12816 284.256C-0.109945 283.045 -0.733679 278.131 1.13753 275.343C3.04542 272.519 6.31086 273.729 8.07199 271.382C11.0806 267.347 3.41232 260.855 5.10008 254.583C7.08135 247.284 18.969 250.255 25.8668 241.709C33.7185 232.026 24.1056 221.023 32.2876 208.589C37.2408 201.033 41.24 204.444 49.0917 195.715C60.3923 183.244 55.7694 172.351 66.4095 165.052C73.8944 159.917 78.0404 163.988 82.7367 159.11C91.3589 150.123 78.1871 135.269 86.1856 121.514C92.1661 111.281 102.733 113.922 107.466 102.222C110.658 94.3359 106.806 90.8881 110.915 84.9095C116.528 76.8403 126.728 78.7109 128.71 72.0355C130.177 67.1206 125.041 64.7732 126.251 59.1614C127.866 51.5323 138.176 52.1559 141.074 44.8202C144.45 36.3109 132.159 30.2223 133.663 18.5953C135.13 7.22501 148.743 -2.16463 154.54 0.256139C157.512 1.5032 156.558 5.06099 161.401 12.1766C163.896 15.8444 166.941 20.5392 172.041 22.7032C180.847 26.4811 187.341 19.2188 194.385 23.6935C197.284 25.5275 196 26.6278 200.659 31.7628C206.089 37.7413 212.253 41.1157 215.482 42.8396C222.894 46.8008 224.801 45.9572 227.113 49.0749C230.268 53.3296 227.333 55.677 230.415 61.949C233.057 67.3407 236.139 67.5241 239.074 73.9794C239.074 73.9794 240.505 77.0971 241.202 81.0583C243.367 92.8321 235.992 105.963 235.111 107.613C206.126 161.824 79.3245 283.486 51.9169 272.299C50.8162 271.969 46.2299 269.805 39.7724 269.511Z" fill="#84D133"/>
<path d="M117.85 339.97C130.838 378.776 143.79 417.582 156.778 456.387C171.197 451.802 186.13 447.364 201.614 443.183C239.074 433.097 274.737 425.724 308.125 420.369C244.725 393.594 181.287 366.782 117.85 339.97Z" fill="#F2CA22"/>
<path d="M420.874 433.61C412.986 393.081 405.134 352.551 397.246 312.022C370.168 319.174 341.623 327.684 311.904 337.88C271.581 351.708 234.744 366.709 201.503 381.857C222.306 395.355 252.062 411.383 290.22 422.46C344.558 438.232 391.595 436.838 420.874 433.61Z" fill="#F2CA22"/>
<path d="M300.933 447.731C268.499 447.805 190.826 443.183 135.387 387.065C127.168 378.776 120.197 370.083 114.29 361.354C116.712 352.991 119.133 344.665 121.555 336.303C178.425 366.342 235.295 396.382 292.165 426.421C295.063 433.537 297.998 440.616 300.933 447.731Z" fill="#C16844"/>
<path d="M409.023 331.681C408.252 337.55 406.418 348.077 401.758 360.29C385.431 403.167 343.31 443.037 293.595 447.731C281.744 448.832 271.544 447.768 263.839 446.374C270.884 438.488 277.965 430.566 285.01 422.68C326.36 385.305 367.673 347.966 409.023 310.591C409.023 317.597 409.023 324.639 409.023 331.681Z" fill="#C16844"/>
<path d="M161.401 326.803C161.401 326.803 133.296 350.938 110.952 352.515C102.843 353.102 98.0736 352.038 98.0736 352.038C89.1211 350.021 85.7456 345.473 81.9665 347.16C78.591 348.664 76.6097 354.422 77.7838 358.97C79.4716 365.389 86.5528 365.646 102.513 374.779C115.171 382.041 115.905 385.049 123.28 386.662C132.342 388.643 140.524 386.662 146.028 384.682C146.578 387.176 149.44 398.546 160.374 405.442C170.427 411.787 183.525 411.897 194.496 405.918C205.906 422.717 216.73 427.999 224.655 429.649C230.892 430.97 237.24 430.42 250.889 433.097C257.676 434.454 263.143 435.958 266.702 437.058C267.216 438.122 273.49 450.189 286.478 451.876C297.962 453.38 309.813 446.191 314.693 434.087C320.417 434.601 328.048 434.271 333.992 429.649C345.183 420.883 339.863 404.965 349.329 399.5C358.978 393.925 369.251 407.642 380.479 402.471C391.266 397.483 385.836 382.995 398.787 371.808C409.831 362.271 419.37 367.956 427.993 357.943C434.597 350.278 437.385 337.257 432.432 330.728C424.544 320.348 398.31 328.601 383.964 332.195C282.075 357.833 207.851 290.712 161.401 326.803Z" fill="#84D133"/>
<path d="M39.7725 269.512C43.8084 270.466 47.8443 271.419 51.8803 272.409C91.5425 191.534 131.205 110.658 170.867 29.7462C166.574 28.169 162.281 26.5552 157.989 24.978C118.583 106.514 79.1778 188.013 39.7725 269.512Z" fill="#FCB629"/>
<path d="M107.942 321.852C168.188 349.984 228.433 378.116 288.679 406.248C330.029 368.873 371.342 331.535 412.692 294.159C360.151 294.6 303.171 297.314 242.522 303.402C194.825 308.171 149.879 314.553 107.942 321.852Z" fill="#FFDBAB"/>
<path d="M412.692 331.755C371.452 366.709 330.249 401.663 289.009 436.581C288.899 426.458 288.789 416.371 288.679 406.248C330.029 368.873 371.342 331.535 412.692 294.159C412.692 306.703 412.692 319.247 412.692 331.755Z" fill="#A06D3A"/>
<path d="M289.009 436.618C229.644 408.596 170.279 380.574 110.914 352.551C109.924 342.318 108.933 332.122 107.942 321.888C168.188 350.021 228.433 378.153 288.679 406.285C288.789 416.372 288.899 426.495 289.009 436.618Z" fill="#A06D3A"/>
<path d="M208.218 43.6101C168.923 123.165 129.627 202.72 90.332 282.312C121.776 276.077 157.218 267.017 195.266 253.666C245.789 235.951 288.46 215.044 323.022 195.275C284.717 144.695 246.486 94.1527 208.218 43.6101Z" fill="#FFDBAB"/>
<path d="M63.9141 275.711C72.7197 277.911 81.4887 280.112 90.2944 282.313C129.59 202.758 168.885 123.166 208.18 43.6107C199.815 40.5297 191.486 37.4488 183.121 34.3678C143.422 114.803 103.686 195.275 63.9141 275.711Z" fill="#A06D3A"/>
<path d="M51.8799 272.41C55.8791 273.51 59.9151 274.61 63.9143 275.711C103.687 195.275 143.422 114.803 183.158 34.3678C178.865 32.7906 174.572 31.1768 170.279 29.5996C130.837 110.549 91.3586 191.461 51.8799 272.41Z" fill="#BC4526"/>
</g>
<g clip-path="url(#clip1)">
<path d="M573.196 109.492C588.694 204.026 604.144 298.513 619.642 393.048C639.063 399.405 668.002 406.335 703.494 406.048C732.577 405.809 756.828 400.743 774.431 395.629C780.889 295.12 787.346 194.563 793.756 94.0543C720.284 99.1682 646.716 104.33 573.196 109.492Z" fill="#A3DCE5"/>
<path d="M540 103.135C540.622 111.738 541.292 120.34 541.913 128.895C636.958 120.101 731.955 111.26 827 102.466C824.656 91.9512 822.265 81.4367 819.921 70.8744C807.245 69.584 794.569 68.2935 781.845 67.0031C777.78 58.0658 773.666 49.0329 769.6 40C706.603 45.3528 643.607 50.7535 580.61 56.1063C578.075 66.7164 575.54 77.3265 573.005 87.8887C562.051 93.0026 551.002 98.0687 540 103.135Z" fill="#222828"/>
<path d="M780.41 302.433C754.389 306.686 724.206 310.032 690.627 310.749C659.105 311.466 630.548 309.793 605.531 307.021C599.552 270.411 593.525 233.802 587.546 197.192C654.273 193.942 721.001 190.644 787.776 187.395C785.337 225.772 782.897 264.103 780.41 302.433Z" fill="#E8E8E8"/>
<path d="M698.95 283.601C695.315 282.12 690.101 279.826 684.122 276.576C666.423 266.922 648.294 257.076 647.242 242.452C646.668 234.327 651.308 224.959 659.296 220.897C668.815 216.07 682.16 219.32 691.057 229.786" fill="#E0552B"/>
<path d="M698.95 283.602C701.772 281.212 705.551 277.819 709.76 273.469C720.857 261.904 740.66 241.161 734.777 226.059C732.098 219.176 724.684 214.875 718.226 213.919C708.038 212.39 697.036 218.603 691.105 229.834" fill="#E0552B"/>
</g>
<path d="M1161.67 342.379C1231.58 342.379 1288.25 287.808 1288.25 220.491C1288.25 153.173 1231.58 98.6017 1161.67 98.6017C1091.76 98.6017 1035.09 153.173 1035.09 220.491C1035.09 287.808 1091.76 342.379 1161.67 342.379Z" fill="#EDB17A"/>
<path d="M1044.82 183.796C1043.57 189.575 1046.94 196.147 1052.58 200.849C1061.76 192.747 1077 178.338 1074.1 173.616C1071.13 168.781 1047.56 171.161 1044.82 183.796Z" fill="#6B3E15"/>
<path d="M1137.67 196.279C1134.46 199.66 1134.19 205.533 1136.27 211.085C1146.06 209.461 1162.68 206.137 1162.52 201.718C1162.37 197.204 1144.71 188.895 1137.67 196.279Z" fill="#6B3E15"/>
<path d="M1131.43 262.738C1128.21 266.119 1127.94 271.992 1130.03 277.545C1139.81 275.92 1156.43 272.597 1156.28 268.177C1156.13 263.664 1138.47 255.335 1131.43 262.738Z" fill="#6B3E15"/>
<path d="M1263.46 298.735C1265.92 294.768 1264.95 288.952 1261.76 283.966C1252.52 287.573 1236.94 294.24 1238 298.546C1239.1 302.908 1258.1 307.403 1263.46 298.735Z" fill="#6B3E15"/>
<path d="M1225.06 195.901C1227.52 191.935 1226.55 186.118 1223.35 181.132C1214.12 184.74 1198.54 191.406 1199.6 195.712C1200.7 200.075 1219.7 204.57 1225.06 195.901Z" fill="#6B3E15"/>
<path d="M1173.99 104.249C1170.96 107.799 1171.06 113.691 1173.46 119.112C1183.13 116.921 1199.54 112.653 1199.13 108.252C1198.73 103.758 1180.62 96.4676 1173.99 104.249Z" fill="#6B3E15"/>
<path d="M1152.49 306.931C1150.71 308.99 1148.73 312.37 1149.6 315.524C1150.88 320.208 1157.49 321.737 1159.38 322.172C1165.29 323.532 1170.19 321.681 1173.67 320.378C1177.65 318.886 1185.77 315.902 1185.39 312.502C1184.78 306.742 1160.99 297.073 1152.49 306.931Z" fill="#6B3E15"/>
<path d="M1052.33 250.104C1050.03 251.558 1047.13 254.183 1047.03 257.45C1046.88 262.304 1052.73 265.722 1054.42 266.704C1059.64 269.745 1064.9 269.424 1068.61 269.216C1072.85 268.952 1081.48 268.498 1082.14 265.156C1083.24 259.471 1063.37 243.191 1052.33 250.104Z" fill="#6B3E15"/>
<path d="M1127.07 145.193C1124.03 147.063 1120.24 150.5 1120.19 154.863C1120.13 161.359 1128.04 166.081 1130.33 167.441C1137.41 171.671 1144.41 171.388 1149.37 171.199C1155.03 170.972 1166.57 170.632 1167.35 166.175C1168.67 158.602 1141.65 136.279 1127.07 145.193Z" fill="#6B3E15"/>
<path opacity="0.34" d="M1344.39 434.901C1224.28 436.601 1104.17 438.3 984.066 440C988.836 423.702 993.586 407.403 998.356 391.105C990.198 328.14 985.05 257.072 986.11 179.244C986.659 138.337 988.873 99.546 992.242 63.1342C988.495 48.1956 984.747 33.2569 981 18.3183C1100.77 12.5392 1220.53 6.77905 1340.3 1C1338.6 15.2588 1336.89 29.5175 1335.19 43.7763C1343.78 113.068 1348.76 191.369 1346.41 277.035C1345.33 316.298 1342.82 353.692 1339.26 389.084C1340.98 404.344 1342.68 419.622 1344.39 434.901Z" fill="#E0E0E0"/>
<path d="M1325.61 164.23C1327.9 198.526 1329.06 215.694 1328.72 235.561C1327.73 292.313 1317.49 342.795 1312.86 342.474C1306.86 342.058 1314.07 256.657 1294.99 252.332C1279.98 248.933 1264.82 299.358 1239.55 297.677C1218.74 296.298 1215.31 261.133 1193.64 258.659C1164.57 255.335 1138.47 314.825 1131.92 311.237C1128.04 309.122 1132.66 285.854 1147.52 268.63C1167.88 245.023 1199.03 242.662 1205.7 242.153C1222.45 240.868 1223.24 245.439 1235.81 242.662C1262.04 236.865 1277.03 212.917 1280.72 207.006C1286.42 197.903 1287.36 192.861 1296.03 161.17C1312.21 101.963 1314.65 98.4128 1316.45 98.5261C1321.15 98.8661 1322.98 124.966 1325.61 164.23Z" fill="white"/>
<path d="M1001.72 285.269C1006.68 337.583 1019.8 384.533 1025.63 383.664C1030.11 383.003 1024.42 355.033 1036.06 349.688C1045.52 345.345 1055.8 360.869 1077.73 369.783C1112.07 383.739 1148.56 370.784 1148.52 367.025C1148.48 363.192 1110.38 369.783 1077.17 345.156C1068.57 338.791 1063.33 332.219 1053.2 319.358C1019.36 276.374 1009.62 241.681 1003.22 243.361C997.996 244.721 1000.19 269.065 1001.72 285.269Z" fill="white"/>
<path d="M1001.52 60.5279C1061.63 59.3192 1123.23 57.1851 1186.26 54.0312C1234.56 51.6138 1281.95 48.6676 1328.41 45.2493" stroke="#E5E5E5" stroke-width="6" stroke-miterlimit="10" stroke-linecap="round"/>
<path d="M1006.95 390.368C1066.98 395.335 1131.81 398.225 1200.89 397.847C1247.22 397.583 1291.51 395.883 1333.58 393.088" stroke="#E5E5E5" stroke-width="6" stroke-miterlimit="10" stroke-linecap="round"/>
<g clip-path="url(#clip2)">
<path d="M240.305 665.242C166.882 716.021 93.4233 766.801 20 817.58C149.655 803.327 279.345 789.039 409 774.785C390.688 752.408 360.191 720.924 314.569 695.464C287.083 680.091 261.243 670.88 240.305 665.242Z" fill="#83A538"/>
<path d="M403.678 926.564C277.069 933.042 150.46 939.521 23.8515 946.035C22.591 903.205 21.2955 860.41 20 817.58C149.655 803.327 279.345 789.039 409 774.786C407.214 825.355 405.464 875.959 403.678 926.564Z" fill="#FFF0CF"/>
<path d="M406.269 850.745C278.365 864.508 150.426 878.271 22.5215 892.034C21.9613 876.8 21.401 861.566 20.8408 846.368C149.901 832.324 278.925 818.246 407.985 804.203C407.425 819.717 406.83 835.231 406.269 850.745Z" fill="#FFFDEE"/>
<path d="M405.569 869.061C277.945 880.197 150.321 891.298 22.6964 902.435C22.3463 891.614 21.9961 880.792 21.646 869.971C150.076 858.239 278.505 846.507 406.9 834.776C406.444 846.192 406.024 857.609 405.569 869.061Z" fill="#83A538"/>
<path d="M404.834 891.088C277.63 901.034 150.426 910.945 23.2218 920.891C22.9767 911.26 22.7666 901.664 22.5215 892.034C150.321 881.072 278.155 870.076 405.954 859.115C405.604 869.761 405.219 880.442 404.834 891.088Z" fill="#FFFDEE"/>
<path d="M168.072 685.484C160.859 688.565 128.927 702.153 124.34 731.115C123.675 735.247 121.819 746.874 128.296 756.96C142.652 779.443 184.073 772.439 192.021 771.073C200.459 769.637 213.834 767.221 227.28 757.205C232.777 753.108 257.986 734.407 253.715 711.889C249.478 689.581 219.682 681.386 215.62 680.266C194.087 674.417 176.055 682.087 168.072 685.484Z" fill="#F7E3E2"/>
<path d="M162.084 752.373C159.458 751.147 155.467 748.906 151.685 744.808C146.468 739.135 144.578 733.042 143.877 729.995C174.024 717.317 204.171 704.605 234.317 691.928C235.508 696.48 236.698 701.033 237.924 705.621C224.759 708.352 203.155 714.796 182.392 731.606C173.779 738.575 167.126 745.894 162.084 752.373Z" fill="#E2ABAA"/>
<path d="M225.809 722.466C235.263 708.458 230.571 693.259 227.139 682.122C220.242 659.709 199.269 625.144 177.805 627.07C148.184 629.767 115.096 702.364 143.877 729.995C154.451 740.151 173.534 744.353 190.06 741.937C193.947 741.412 215.13 738.33 225.809 722.466Z" fill="#DB4D31"/>
<path d="M162.293 659.022C161.418 660.808 160.543 662.595 159.667 664.381Z" fill="#E5E5E5"/>
<path d="M162.293 659.022C161.418 660.808 160.543 662.595 159.667 664.381" stroke="#EFD97D" stroke-width="3" stroke-miterlimit="10" stroke-linecap="round"/>
<path d="M179.416 659.372C179.626 661.298 179.836 663.225 180.081 665.151Z" fill="#E5E5E5"/>
<path d="M179.416 659.372C179.626 661.298 179.836 663.225 180.081 665.151" stroke="#EFD97D" stroke-width="3" stroke-miterlimit="10" stroke-linecap="round"/>
<path d="M197.448 655.625C198.288 657.236 199.093 658.882 199.934 660.493Z" fill="#E5E5E5"/>
<path d="M197.448 655.625C198.288 657.236 199.093 658.882 199.934 660.493" stroke="#EFD97D" stroke-width="3" stroke-miterlimit="10" stroke-linecap="round"/>
<path d="M195.138 676.463C195.768 678.319 196.398 680.14 197.028 681.996Z" fill="#E5E5E5"/>
<path d="M195.138 676.463C195.768 678.319 196.398 680.14 197.028 681.996" stroke="#EFD97D" stroke-width="3" stroke-miterlimit="10" stroke-linecap="round"/>
<path d="M172.938 678.528C172.728 679.964 172.483 681.365 172.273 682.801Z" fill="#E5E5E5"/>
<path d="M172.938 678.528C172.728 679.964 172.483 681.365 172.273 682.801" stroke="#EFD97D" stroke-width="3" stroke-miterlimit="10" stroke-linecap="round"/>
<path d="M148.989 680.56C148.218 682.101 147.448 683.677 146.678 685.218Z" fill="#E5E5E5"/>
<path d="M148.989 680.56C148.218 682.101 147.448 683.677 146.678 685.218" stroke="#EFD97D" stroke-width="3" stroke-miterlimit="10" stroke-linecap="round"/>
<path d="M210.998 669.808C211.873 671.419 212.784 673.03 213.659 674.641Z" fill="#E5E5E5"/>
<path d="M210.998 669.808C211.873 671.419 212.784 673.03 213.659 674.641" stroke="#EFD97D" stroke-width="3" stroke-miterlimit="10" stroke-linecap="round"/>
<path d="M141.602 704.374C142.337 706.09 143.108 707.806 143.843 709.522Z" fill="#E5E5E5"/>
<path d="M141.602 704.374C142.337 706.09 143.108 707.806 143.843 709.522" stroke="#EFD97D" stroke-width="3" stroke-miterlimit="10" stroke-linecap="round"/>
<path d="M163.03 702.342C163.801 704.058 164.606 705.774 165.376 707.49Z" fill="#E5E5E5"/>
<path d="M163.03 702.342C163.801 704.058 164.606 705.774 165.376 707.49" stroke="#EFD97D" stroke-width="3" stroke-miterlimit="10" stroke-linecap="round"/>
<path d="M181.761 698.455C182.216 700.487 182.672 702.553 183.127 704.584Z" fill="#E5E5E5"/>
<path d="M181.761 698.455C182.216 700.487 182.672 702.553 183.127 704.584" stroke="#EFD97D" stroke-width="3" stroke-miterlimit="10" stroke-linecap="round"/>
<path d="M200.459 698C200.004 700.066 199.549 702.167 199.094 704.233Z" fill="#E5E5E5"/>
<path d="M200.459 698C200.004 700.066 199.549 702.167 199.094 704.233" stroke="#EFD97D" stroke-width="3" stroke-miterlimit="10" stroke-linecap="round"/>
<path d="M221.678 696.039C221.083 698.105 220.453 700.171 219.857 702.237Z" fill="#E5E5E5"/>
<path d="M221.678 696.039C221.083 698.105 220.453 700.171 219.857 702.237" stroke="#EFD97D" stroke-width="3" stroke-miterlimit="10" stroke-linecap="round"/>
<path d="M193.877 721.66C193.386 723.341 192.861 724.987 192.371 726.668Z" fill="#E5E5E5"/>
<path d="M193.877 721.66C193.386 723.341 192.861 724.987 192.371 726.668" stroke="#EFD97D" stroke-miterlimit="10" stroke-linecap="round"/>
<path d="M212.749 721.065C211.069 722.501 209.388 723.937 207.672 725.372Z" fill="#E5E5E5"/>
<path d="M212.749 721.065C211.069 722.501 209.388 723.937 207.672 725.372" stroke="#EFD97D" stroke-miterlimit="10" stroke-linecap="round"/>
<path d="M174.374 724.357C175.705 725.758 177.035 727.123 178.366 728.524Z" fill="#E5E5E5"/>
<path d="M174.374 724.357C175.705 725.758 177.035 727.123 178.366 728.524" stroke="#EFD97D" stroke-width="3" stroke-miterlimit="10" stroke-linecap="round"/>
<path d="M155.361 725.035C157.077 726.226 158.828 727.452 160.543 728.642Z" fill="#E5E5E5"/>
<path d="M155.361 725.035C157.077 726.226 158.828 727.452 160.543 728.642" stroke="#EFD97D" stroke-width="3" stroke-miterlimit="10" stroke-linecap="round"/>
<path d="M185.543 643.298C186.103 644.979 186.628 646.66 187.189 648.341Z" fill="#E5E5E5"/>
<path d="M185.543 643.298C186.103 644.979 186.628 646.66 187.189 648.341" stroke="#EFD97D" stroke-width="3" stroke-miterlimit="10" stroke-linecap="round"/>
<path d="M172.098 639.236C171.538 640.952 170.977 642.703 170.452 644.419Z" fill="#E5E5E5"/>
<path d="M172.098 639.236C171.538 640.952 170.977 642.703 170.452 644.419" stroke="#EFD97D" stroke-width="3" stroke-miterlimit="10" stroke-linecap="round"/>
<path d="M173.919 768.902C169.998 763.404 166.041 757.871 162.12 752.372C168.842 742.427 180.502 727.858 198.954 715.076C212.924 705.375 226.299 699.877 236.243 696.655C239.079 702.784 241.88 708.877 244.716 715.006C242.966 721.835 238.169 736.403 224.934 749.045C204.661 768.412 179.661 768.937 173.919 768.902Z" fill="#F7E3E2"/>
</g>
<g clip-path="url(#clip3)">
<path d="M843.371 827.16C832.433 857.891 811.932 871.75 799.418 880.185C790.417 886.261 775.874 894.245 756.496 897.158C744.29 903.535 726.27 910.816 703.94 912.598C681.737 914.356 663.319 910.037 650.696 905.694C638.109 904.991 621.52 902.154 603.084 893.517C572.206 879.03 551.107 855.28 539.426 839.814C538.104 838.383 521.66 819.804 523.362 789.174C525.083 758.267 543.718 743.404 545.131 742.324C552.158 732.508 564.744 717.444 583.38 706.899C605.746 694.245 625.631 694.446 636.081 695.576C646.367 691.257 660.494 686.864 677.463 686.136C695.772 685.332 711.039 689.048 721.906 692.914C729.421 692.513 740.034 692.663 752.512 695.4C790.308 703.685 814.467 728.792 821.186 736.173C834.86 751.187 847.428 764.996 849.656 787.818C851.34 804.79 846.432 818.523 843.371 827.16Z" fill="#9B5B2C"/>
<path d="M850.199 796.354C850.199 841.396 784.042 883.751 738.187 896.957C728.606 899.718 710.804 903.811 686.609 902.33C617.119 898.087 523 849.53 523 796.354C523 737.83 596.256 690.379 686.609 690.379C776.961 690.379 850.199 737.83 850.199 796.354Z" fill="#9B5B2C"/>
<path d="M687.333 884.931C767.309 884.931 832.143 844.79 832.143 795.275C832.143 745.759 767.309 705.619 687.333 705.619C607.357 705.619 542.523 745.759 542.523 795.275C542.523 844.79 607.357 884.931 687.333 884.931Z" fill="#FFC32C"/>
<path d="M586.495 805.468C595.667 805.468 603.102 799.106 603.102 791.258C603.102 783.409 595.667 777.047 586.495 777.047C577.323 777.047 569.888 783.409 569.888 791.258C569.888 799.106 577.323 805.468 586.495 805.468Z" fill="#CE4115"/>
<path d="M698.235 863.289C707.407 863.289 714.842 856.927 714.842 849.078C714.842 841.23 707.407 834.868 698.235 834.868C689.063 834.868 681.628 841.23 681.628 849.078C681.628 856.927 689.063 863.289 698.235 863.289Z" fill="#CE4115"/>
<path d="M803.387 837.769C804.914 830.211 798.992 821.305 790.161 817.876C781.329 814.447 772.932 817.793 771.405 825.35C769.878 832.907 775.8 841.813 784.632 845.242C793.463 848.672 801.86 845.326 803.387 837.769Z" fill="#CE4115"/>
<path d="M767.462 844.764C770.097 837.817 766.693 828.147 759.859 823.164C753.024 818.181 745.348 819.772 742.712 826.719C740.077 833.665 743.481 843.336 750.316 848.319C757.15 853.302 764.827 851.71 767.462 844.764Z" fill="#CE4115"/>
<path d="M780.67 787.036C782.389 778.531 778.067 769.417 771.017 766.68C763.967 763.942 756.859 768.618 755.141 777.123C753.422 785.628 757.744 794.742 764.794 797.479C771.844 800.216 778.952 795.541 780.67 787.036Z" fill="#CE4115"/>
<path d="M739.945 746.947C742.58 740.001 739.384 730.482 732.807 725.686C726.229 720.89 718.76 722.634 716.125 729.58C713.49 736.527 716.686 746.045 723.263 750.841C729.841 755.637 737.31 753.894 739.945 746.947Z" fill="#CE4115"/>
<path d="M644.556 743.248C645.071 735.432 639.488 728.336 632.087 727.4C624.686 726.463 618.269 732.04 617.755 739.856C617.24 747.672 622.822 754.768 630.224 755.704C637.625 756.641 644.042 751.064 644.556 743.248Z" fill="#CE4115"/>
<path d="M675.887 762.51C670.979 754.225 666.053 745.94 661.146 737.655C666.09 732.257 673.352 733.336 677.336 740.065C681.284 746.794 680.65 756.836 675.887 762.51Z" fill="#CE4115"/>
<path d="M632.531 805.167C640.065 802.731 647.599 800.271 655.133 797.835C656.437 806.372 652.525 814.908 646.404 816.891C640.301 818.85 634.071 813.602 632.531 805.167Z" fill="#CE4115"/>
<path d="M709.681 725.478C706.349 735.822 703.017 746.166 699.666 756.51C692.241 753.798 688.42 744.76 691.136 736.374C693.871 727.988 702.165 723.118 709.681 725.478Z" fill="#CE4115"/>
<path d="M669.838 849.907C666.216 860.05 662.576 870.218 658.954 880.361C651.601 877.248 648.052 868.009 651.004 859.774C653.974 851.564 662.395 847.145 669.838 849.907Z" fill="#CE4115"/>
<path d="M626.374 864.745C635.546 864.745 642.981 857.315 642.981 848.149C642.981 838.984 635.546 831.554 626.374 831.554C617.202 831.554 609.767 838.984 609.767 848.149C609.767 857.315 617.202 864.745 626.374 864.745Z" fill="#CE4115"/>
<path d="M690.846 784.805C683.004 787.617 675.181 790.404 667.339 793.216C663.952 792.915 661.399 789.023 661.688 784.78C661.96 780.713 664.767 777.549 668.027 777.8C675.651 780.135 683.24 782.47 690.846 784.805Z" fill="#CE4115"/>
<path d="M829.535 778.252C824.79 784.278 818.234 786.261 812.674 783.249C807.259 780.311 801.41 771.925 803.022 762.887C804.072 756.987 808.02 752.342 813.055 750.735C816.948 754.351 822.182 760.376 826.366 769.716C827.688 772.679 828.72 775.566 829.535 778.252Z" fill="#CE4115"/>
<path d="M661.689 736.776C666.433 745.262 671.178 753.723 675.923 762.209C670.87 767.431 663.644 766.05 659.805 759.146C655.948 752.267 656.799 742.249 661.689 736.776Z" fill="#CE4115"/>
<path d="M825.986 687.424C829.789 685.667 831.546 682.102 831.546 682.102C833.393 678.361 833.248 674.042 833.067 671.858C821.042 659.958 806.155 647.203 788.389 635.629C776.219 627.721 764.682 621.67 754.197 617C753.563 617.251 750.212 618.757 748.582 623.427C747.025 627.921 747.677 633.545 750.285 637.638C754.215 640.851 816.967 691.617 825.986 687.424Z" fill="#9B5B2C"/>
<path d="M832.831 678.06C790.254 697.241 747.659 716.448 705.081 735.63C702.98 739.873 700.862 744.116 698.761 748.359C742.769 727.922 786.795 707.51 830.803 687.073C831.491 684.06 832.161 681.048 832.831 678.06Z" fill="#9B5B2C"/>
<path d="M655.368 798.639C647.853 801.2 640.337 803.786 632.821 806.346C631.445 797.835 635.284 789.224 641.387 787.165C647.472 785.106 653.739 790.228 655.368 798.639Z" fill="#CE4115"/>
<path d="M658.356 880.562C661.852 870.319 665.347 860.075 668.842 849.832C676.231 852.769 679.908 861.908 677.046 870.218C674.221 878.529 665.854 883.148 658.356 880.562Z" fill="#CE4115"/>
<path d="M747.84 629.202C731.232 667.992 714.607 706.782 698 745.572C740.668 726.189 783.318 706.807 825.986 687.425C817.492 678.336 807.586 668.821 796.194 659.657C778.627 645.547 762.02 635.906 747.84 629.202Z" fill="#FFC32C"/>
<path d="M757.745 704.39C760.38 697.443 756.976 687.773 750.142 682.79C743.308 677.807 735.631 679.398 732.996 686.345C730.36 693.291 733.764 702.962 740.599 707.945C747.433 712.928 755.11 711.336 757.745 704.39Z" fill="#CE4115"/>
<path d="M787.641 688.902C790.276 681.956 786.872 672.285 780.038 667.302C773.204 662.319 765.527 663.911 762.892 670.857C760.256 677.804 763.66 687.474 770.495 692.457C777.329 697.44 785.006 695.849 787.641 688.902Z" fill="#CE4115"/>
<path d="M705.661 727.394C710.025 717.829 714.408 708.238 718.773 698.672C725.854 702.84 728.697 712.531 725.129 720.289C721.562 728.047 712.85 731.236 705.661 727.394Z" fill="#CE4115"/>
<g opacity="0.77">
<path d="M757.257 894.848C717.07 828.867 676.883 762.887 636.696 696.931Z" fill="#E0552B"/>
<path d="M757.257 894.848C717.07 828.867 676.883 762.887 636.696 696.931" stroke="#631A07" stroke-miterlimit="10" stroke-linecap="round"/>
</g>
<g opacity="0.77">
<path d="M541.237 839.337C591.095 821.235 640.97 803.133 690.828 785.006Z" fill="#E0552B"/>
<path d="M541.237 839.337C591.095 821.235 640.97 803.133 690.828 785.006" stroke="#631A07" stroke-miterlimit="10" stroke-linecap="round"/>
</g>
<g opacity="0.77">
<path d="M651.112 903.66C664.351 864.117 677.59 824.574 690.828 785.031Z" fill="#E0552B"/>
<path d="M651.112 903.66C664.351 864.117 677.59 824.574 690.828 785.031" stroke="#631A07" stroke-miterlimit="10" stroke-linecap="round"/>
</g>
<g opacity="0.77">
<path d="M841.633 827.537C743.403 799.367 645.172 771.172 546.924 742.977Z" fill="#E0552B"/>
<path d="M841.633 827.537C743.403 799.367 645.172 771.172 546.924 742.977" stroke="#631A07" stroke-miterlimit="10" stroke-linecap="round"/>
</g>
</g>
<g clip-path="url(#clip4)">
<path d="M1242.77 1014C1139.64 996.64 1036.48 979.24 933.358 961.88C931.919 851.4 930.439 740.96 929 630.52C1033.6 640.2 1138.16 649.88 1242.77 659.52C1242.77 777.68 1242.77 895.84 1242.77 1014Z" fill="#E54E4E"/>
<path d="M1366.8 905.16C1325.46 941.44 1284.11 977.72 1242.77 1014C1242.77 895.84 1242.77 777.72 1242.77 659.56C1285.19 644 1327.58 628.48 1370 612.92C1368.96 710.32 1367.88 807.72 1366.8 905.16Z" fill="#BA2F2F"/>
<path d="M1242.77 661.44C1138.16 651.36 1033.6 641.32 929 631.24C993.697 617.2 1058.39 603.2 1123.09 589.16C1205.38 597.08 1287.71 605 1370 612.88C1327.62 629.08 1285.19 645.28 1242.77 661.44Z" fill="#EA6A6A"/>
<path d="M1092.26 988.64C1076.47 985.84 1060.71 983 1044.92 980.2C1046.04 867.72 1047.12 755.24 1048.24 642.72C1065.75 644.4 1083.3 646.08 1100.82 647.8C1097.98 761.4 1095.1 875 1092.26 988.64Z" fill="#5E1D1D"/>
<path d="M1334.05 934.36C1323.18 943.76 1312.26 953.16 1301.38 962.56C1299.7 855.4 1297.99 748.2 1296.31 641.04C1307.9 636.6 1319.5 632.2 1331.09 627.76C1332.09 729.96 1333.09 832.16 1334.05 934.36Z" fill="#2B2120"/>
<path d="M1249.2 601.28C1199.74 616.76 1150.28 632.28 1100.82 647.76C1083.3 646.08 1065.75 644.4 1048.24 642.68C1100.94 627.48 1153.64 612.32 1206.3 597.12C1220.61 598.56 1234.93 599.92 1249.2 601.28Z" fill="#7F4329"/>
<path d="M1296.31 641.04C1200.94 631.92 1105.62 622.76 1010.25 613.64C1026.92 610.04 1043.56 606.4 1060.23 602.8C1150.52 611.12 1240.81 619.44 1331.09 627.76C1319.5 632.16 1307.9 636.6 1296.31 641.04Z" fill="#5B2F2A"/>
<path d="M1242.77 875.16C1139.08 858.44 1035.36 841.72 931.679 824.96C931.439 807.68 931.239 790.4 930.999 773.16C1034.92 788.48 1138.84 803.76 1242.77 819.08C1242.77 837.76 1242.77 856.44 1242.77 875.16Z" fill="#5E1D1D"/>
<path d="M1368 796.281C1326.26 822.561 1284.51 848.881 1242.77 875.161C1242.77 856.481 1242.77 837.761 1242.77 819.081C1284.63 799.281 1326.54 779.441 1368.4 759.641C1368.28 771.841 1368.12 784.041 1368 796.281Z" fill="#2B2120"/>
<path d="M1098.5 610.76C1081.42 620.68 1064.35 630.6 1047.32 640.52C1043.36 679 1039.36 717.52 1035.4 756C1042.68 748.96 1049.92 741.96 1057.19 734.92C1062.63 739.84 1068.07 744.76 1073.51 749.72C1074.35 733.92 1075.63 717.6 1077.43 700.76C1079.54 680.92 1082.18 661.84 1085.22 643.6C1104.54 632.92 1123.81 622.24 1143.12 611.56C1128.25 611.28 1113.37 611 1098.5 610.76Z" fill="#FFA31D"/>
<path d="M1133.13 615.6C1126.17 628.44 1119.17 641.28 1112.21 654.08C1109.13 702.56 1106.1 751.04 1103.02 799.48C1109.37 792.12 1115.73 784.72 1122.09 777.36C1127.53 783.8 1132.97 790.24 1138.4 796.68C1139.24 776 1140.52 754.68 1142.32 732.72C1144.4 706.88 1147.08 681.96 1150.12 658.04C1155.08 648.52 1160.08 639.04 1165.03 629.52C1154.36 624.92 1143.76 620.24 1133.13 615.6Z" fill="#FFA31D"/>
<path d="M1100.1 635.2C1092.7 636.24 1083.74 636.84 1073.59 636.08C1068.07 635.68 1063.03 634.92 1058.51 634.04C1067.23 628.8 1075.95 623.56 1084.66 618.32C1085.98 616.88 1093.38 609 1105.5 608.6C1119.29 608.16 1127.77 617.76 1128.85 619.04C1119.25 624.4 1109.66 629.8 1100.1 635.2Z" fill="#B5622A"/>
<path d="M1155.44 647.28C1152.96 646.48 1149.12 644.92 1145.2 641.76C1141.6 638.84 1139.36 635.68 1138.04 633.52C1135.72 634.6 1132.77 635.76 1129.29 636.64C1126.17 637.4 1123.37 637.8 1120.97 637.96C1125.01 630.24 1129.05 622.52 1133.13 614.8C1143.76 619.72 1154.4 624.64 1164.99 629.56C1161.79 635.48 1158.64 641.4 1155.44 647.28Z" fill="#B5622A"/>
<path d="M1233.81 626.32C1221.53 638.48 1202.34 636.04 1192.14 634.72C1159.72 630.6 1139.12 607.56 1131.97 598.68C1176.47 563.8 1218.77 554.68 1235.01 570.32C1247.32 582.16 1248.56 611.76 1233.81 626.32Z" fill="#B5622A"/>
<path d="M1140.36 591.8C1204.58 602 1226.09 596.84 1230.09 587.2C1232.45 581.56 1230.05 571.36 1233.13 570.48C1236.13 569.64 1241.05 578.48 1241.73 579.76C1251 596.72 1247.76 615.56 1246.48 621.68C1244.21 632.32 1239.61 654.28 1222.81 661.08C1220.13 662.16 1211.22 665.24 1190.23 657.28C1177.51 652.44 1155 641.52 1133.09 615.64C1135.53 607.68 1137.96 599.72 1140.36 591.8Z" fill="#FFC627"/>
<path d="M1025.21 585.56C1032.32 601.28 1051.12 605.88 1061.11 608.32C1092.86 616.04 1120.33 601.92 1130.17 596.16C1101.06 547.64 1064.87 524 1044.08 532.8C1028.36 539.48 1016.65 566.68 1025.21 585.56Z" fill="#B5622A"/>
<path d="M1124.81 586.72C1061.19 573.32 1042.96 560.76 1042.64 550.36C1042.48 544.28 1048.32 535.56 1045.76 533.64C1043.28 531.76 1035.52 538.28 1034.4 539.24C1019.69 551.76 1015.97 570.52 1015.01 576.68C1013.33 587.44 1009.81 609.6 1023.05 621.92C1025.16 623.88 1032.4 629.96 1054.83 630.04C1068.47 630.08 1093.38 627.92 1123.05 611.56C1123.65 603.28 1124.25 595 1124.81 586.72Z" fill="#FFC627"/>
<path d="M1143.12 622.8C1139.36 624.96 1133.73 624.2 1129.97 623.72C1125.33 623.12 1119.97 622.4 1116.57 618.88C1108.3 610.28 1114.93 588.12 1124.21 585.6C1126.29 585.04 1129.65 585.8 1136.33 587.36C1140.56 588.32 1143.96 589.36 1146.2 590.12C1151.48 605.52 1149.76 619 1143.12 622.8Z" fill="#FFC627"/>
<path d="M1119.93 589.16C1118.25 591.44 1115.57 595.76 1114.53 601.84C1113.85 605.8 1114.13 609.2 1114.53 611.56" stroke="#FFA31D" stroke-width="5" stroke-miterlimit="10" stroke-linecap="round"/>
<path d="M1147.92 596.16C1148 599.76 1147.72 604.44 1146.36 609.76C1145.44 613.36 1144.24 616.4 1143.08 618.88" stroke="#FFA31D" stroke-width="5" stroke-miterlimit="10" stroke-linecap="round"/>
</g>
<defs>
<clipPath id="clip0">
<rect width="435" height="496" fill="white"/>
</clipPath>
<clipPath id="clip1">
<rect x="540" y="40" width="287" height="366" fill="white"/>
</clipPath>
<clipPath id="clip2">
<rect x="20" y="627" width="389" height="319" fill="white"/>
</clipPath>
<clipPath id="clip3">
<rect x="523" y="566" width="373" height="347" fill="white"/>
</clipPath>
<clipPath id="clip4">
<rect x="929" y="531" width="441" height="483" fill="white"/>
</clipPath>
</defs>
</svg>
