<svg width="349" height="421" viewBox="0 0 349 421" fill="none" xmlns="http://www.w3.org/2000/svg">
<path d="M290.321 216.74C318.802 222.833 337.929 251.451 334.302 281.011C330.483 312.08 302.663 334.979 272.368 330.69" stroke="#FEEBCE" stroke-width="28" stroke-miterlimit="10" stroke-linecap="round"/>
<path d="M279.705 149.134C281.168 150.307 286.457 154.763 290.209 164.271C301.412 192.64 286.478 234.138 276.653 298.534C272.731 324.251 270.261 349.461 252.412 374.92C250.186 378.089 247.102 382.454 242.194 387.519C216.332 414.184 180.857 418.064 164.3 419.655C162.817 419.801 160.697 419.982 157.909 420.14C139.88 421.121 95.6173 420.219 60.6186 386.775C39.3353 366.437 32.5518 344.645 19.6631 303.248C5.80992 258.761 -13.8835 169.144 14.4695 151.796C17.8295 149.743 20.8715 149.303 23.0443 149.01C104.828 137.99 187.152 142.874 245.904 143.584C251.384 143.641 267.548 139.434 279.705 149.134Z" fill="#FEEBCE"/>
<path d="M149.179 228.847C228.123 228.847 292.12 203.962 292.12 173.264C292.12 142.567 228.123 117.681 149.179 117.681C70.2344 117.681 6.23743 142.567 6.23743 173.264C6.23743 203.962 70.2344 228.847 149.179 228.847Z" fill="#C2A98D" stroke="#FFDCB4" stroke-miterlimit="10"/>
<path d="M282.225 190.203C281.673 197.854 269.426 202.63 247.765 211.068C236.441 215.484 214.494 222.9 173.752 225.709C164.01 226.383 127.12 228.361 81.804 220.979C73.2184 219.574 53.2028 216.012 31.1391 202.922C18.4994 195.416 12.1848 191.675 11.9089 186.674C10.9219 169.045 78.4292 140.921 145.99 141.572C214.42 142.224 283.562 171.483 282.225 190.203Z" fill="#472F13" stroke="#472F13" stroke-miterlimit="10"/>
<path d="M118.853 213.81C156.183 213.81 186.445 205.147 186.445 194.461C186.445 183.775 156.183 175.112 118.853 175.112C81.5227 175.112 51.2606 183.775 51.2606 194.461C51.2606 205.147 81.5227 213.81 118.853 213.81Z" fill="#936E54"/>
<path d="M149.99 209.855C205.109 209.855 249.792 199.275 249.792 186.225C249.792 173.175 205.109 162.595 149.99 162.595C94.8715 162.595 50.1887 173.175 50.1887 186.225C50.1887 199.275 94.8715 209.855 149.99 209.855Z" fill="#936E54"/>
<path d="M136.491 210.439C184.653 210.439 223.696 200.891 223.696 189.113C223.696 177.335 184.653 167.786 136.491 167.786C88.3296 167.786 49.2869 177.335 49.2869 189.113C49.2869 200.891 88.3296 210.439 136.491 210.439Z" fill="#472F13" stroke="#472F13" stroke-miterlimit="10"/>
<path d="M79.0076 278.914C82.8788 271.363 91.4217 266.78 100.403 267.431C109.308 268.071 116.93 273.741 119.551 281.678" stroke="#472F13" stroke-width="6" stroke-miterlimit="10" stroke-linecap="round"/>
<path d="M174.648 280.577C176.653 271.279 183.503 264.32 191.798 263.144C200.022 261.969 208.093 266.717 212.073 275.061" stroke="#472F13" stroke-width="6" stroke-miterlimit="10" stroke-linecap="round"/>
<path d="M169.45 311.396C167.544 313.418 160.059 320.882 148.524 321.284C137.571 321.673 130 315.454 127.867 313.557" stroke="#472F13" stroke-width="5" stroke-miterlimit="10" stroke-linecap="round"/>
<path d="M76.9284 323.503C90.1336 323.503 100.839 315.125 100.839 304.792C100.839 294.458 90.1336 286.081 76.9284 286.081C63.7231 286.081 53.0182 294.458 53.0182 304.792C53.0182 315.125 63.7231 323.503 76.9284 323.503Z" fill="#FF9A84"/>
<path d="M218.83 320.201C231.748 320.201 242.22 311.577 242.22 300.939C242.22 290.302 231.748 281.678 218.83 281.678C205.912 281.678 195.44 290.302 195.44 300.939C195.44 311.577 205.912 320.201 218.83 320.201Z" fill="#FF9A84"/>
<path d="M98.0495 7.82558C103.53 12.3482 117.147 23.0298 122.474 39.4128C123.546 42.7066 126.077 50.7445 125.471 61.1688C124.212 82.8176 111.5 88.1977 109.456 104.595C106.3 129.888 132.269 153.566 134.853 151.951C137.057 150.572 122.035 130.881 127.841 108.539C129.606 101.759 131.111 102.373 137.916 87.7761C144.628 73.3936 148.757 64.5412 148.99 53.7525C149.383 35.3832 138.296 21.858 136.305 19.4931C119.404 -0.505286 91.9766 -0.912541 91.0244 1.85251C90.738 2.69559 92.9688 3.63157 98.0495 7.82558Z" fill="#FFCB8E"/>
<path d="M152.824 160.43C152.83 160.415 152.952 160.173 153.067 159.937C154.087 157.825 157.263 150.675 156.992 142.097C156.661 131.643 151.911 130.009 150.398 120.097C148.459 107.431 154.161 96.7558 155.607 94.0655C164.073 78.2309 181.316 70.4171 183.728 73.1644C186.303 76.0973 169.695 88.4068 170.884 108.002C171.479 117.778 175.911 118.577 176.093 127.433C176.526 148.256 152.594 165.553 151.607 164.704C151.236 164.39 152.715 160.637 152.824 160.43Z" fill="#FFCB8E"/>
</svg>
