<svg width="869" height="545" viewBox="0 0 869 545" fill="none" xmlns="http://www.w3.org/2000/svg">
<path d="M867.792 102.275L698.15 226.974L794.017 270.483L867.792 102.275Z" fill="#F38067" stroke="#F38067" stroke-miterlimit="10"/>
<path d="M616.653 168.953L679.786 215.875L865.173 102.548L616.653 168.953Z" fill="#F38067" stroke="#F38067" stroke-miterlimit="10"/>
<path d="M698.151 226.974L696.566 287.876L739.971 247.197L698.151 226.974Z" fill="#A50A36" stroke="#B10835" stroke-miterlimit="10"/>
<path d="M698.151 226.974L866.482 102.411L679.786 215.875L696.265 285.015C696.893 265.668 697.522 246.321 698.151 226.974Z" fill="#E04931" stroke="#E04931" stroke-miterlimit="10"/>
<path d="M697 284.275C532.167 362.941 220.9 447.875 294.5 158.275C368.1 -131.325 77.5 49.608 -77 176.275" stroke="#F6663F" stroke-width="6"/>
<path d="M-47.5 252.551C26 246.385 285.5 342.051 285.5 668.051" stroke="#F7704A" stroke-width="5"/>
</svg>
