<svg width="784" height="544" viewBox="0 0 784 544" fill="none" xmlns="http://www.w3.org/2000/svg">
<path d="M165.5 268C215.922 353.537 358.277 501.836 456.1 338.041C578.377 133.296 383 157.5 408 257C345.5 161 287 255.517 327.609 291.971C406.101 362.43 765.766 370.461 810 198.5" stroke="#8180F1" stroke-width="6"/>
<path d="M33.1863 67L186.156 227.441L78.7886 254.969L33.1863 67Z" fill="#ECEBEB" stroke="#ECEBEB" stroke-miterlimit="10"/>
<path d="M281.29 182.229L207.231 219.302L35.8507 67.7639L281.29 182.229Z" fill="#ECEBEB" stroke="#ECEBEB" stroke-miterlimit="10"/>
<path d="M186.155 227.442L176.622 290.888L139.093 240.74L186.155 227.442Z" fill="#526C95" stroke="#526C95" stroke-miterlimit="10"/>
<path d="M186.155 227.442L34.5185 67.3819L207.231 219.302C197.305 242.193 187.38 265.084 177.456 287.976C180.356 267.798 183.256 247.62 186.155 227.442Z" fill="#9FA9BB" stroke="#9FA9BB" stroke-miterlimit="10"/>
</svg>
