<svg width="825" height="293" viewBox="0 0 825 293" fill="none" xmlns="http://www.w3.org/2000/svg">
<path d="M165 203.866C221 309.366 571.6 337.866 464 167.866C356.4 -2.13415 504.833 77.6667 597 148.5C665.5 206.167 813.8 285.8 859 143" stroke="#8180F1" stroke-width="6"/>
<path d="M33.1863 2.3436L186.156 162.785L78.7886 190.313L33.1863 2.3436Z" fill="#ECEBEB" stroke="#ECEBEB" stroke-miterlimit="10"/>
<path d="M281.29 117.572L207.231 154.646L35.8507 3.10748L281.29 117.572Z" fill="#ECEBEB" stroke="#ECEBEB" stroke-miterlimit="10"/>
<path d="M186.155 162.786L176.622 226.232L139.093 176.084L186.155 162.786Z" fill="#526C95" stroke="#526C95" stroke-miterlimit="10"/>
<path d="M186.155 162.786L34.5185 2.72556L207.231 154.646C197.305 177.537 187.38 200.428 177.456 223.32C180.356 203.142 183.256 182.964 186.155 162.786Z" fill="#9FA9BB" stroke="#9FA9BB" stroke-miterlimit="10"/>
</svg>
