<svg width="949" height="669" viewBox="0 0 949 669" fill="none" xmlns="http://www.w3.org/2000/svg">
<path d="M947.292 103L777.65 227.699L873.517 271.208L947.292 103Z" fill="#F38067" stroke="#F38067" stroke-miterlimit="10"/>
<path d="M696.153 169.678L759.286 216.6L944.673 103.273L696.153 169.678Z" fill="#F38067" stroke="#F38067" stroke-miterlimit="10"/>
<path d="M777.651 227.7L776.066 288.601L819.471 247.923L777.651 227.7Z" fill="#A50A36" stroke="#B10835" stroke-miterlimit="10"/>
<path d="M777.651 227.7L945.982 103.137L759.286 216.6L775.765 285.74C776.393 266.393 777.022 247.046 777.651 227.7Z" fill="#E04931" stroke="#E04931" stroke-miterlimit="10"/>
<path d="M776.5 285C611.667 363.667 300.4 448.6 374 159C447.6 -130.6 157 50.3333 2.5 177" stroke="#F6663F" stroke-width="6"/>
<path d="M32 253.277C105.5 247.11 365 342.776 365 668.776" stroke="#F7704A" stroke-width="5"/>
</svg>
