<?xml version="1.0" encoding="utf-8"?>
<!-- Generator: Adobe Illustrator 23.1.0, SVG Export Plug-In . SVG Version: 6.00 Build 0)  -->
<svg version="1.1" id="Layer_1" xmlns="http://www.w3.org/2000/svg" xmlns:xlink="http://www.w3.org/1999/xlink" x="0px" y="0px"
	 viewBox="0 0 1500 858" style="enable-background:new 0 0 1500 858;" xml:space="preserve">
<style type="text/css">
	.st0{fill:none;}
	.st1{opacity:0.35;}
	.st2{fill:#FC636B;}
	.st3{fill:#1AAFD0;}
	.st4{fill:#6A67CE;}
	.st5{fill:#3BE8B0;}
	.st6{fill:#FFB900;}
</style>
<path class="st0" d="z"/>
<g transform="" class="st1">
	<g transform="translate(0 828.0890610798397)">
		<g transform="translate(1413.7135177560037 0)">
			<g>
				<rect x="-4.2" y="-5.7" class="st2" width="8.4" height="11.4"/>
			</g>
		</g>
		<g transform="translate(38.39745940820516 0)">
			<g>
				<rect x="-3.6" y="-3.3" class="st3" width="7.2" height="6.7"/>
			</g>
		</g>
		<g transform="translate(166.80905285253888 0)">
			<g>
				<rect x="-3.4" y="-5" class="st4" width="6.8" height="10.1"/>
			</g>
		</g>
		<g transform="translate(1085.2015208628384 0)">
			<g>
				<rect x="-3.9" y="-4.2" class="st5" width="7.9" height="8.4"/>
			</g>
		</g>
		<g transform="translate(74.43500656802549 0)">
			<g>
				<rect x="-5" y="-5.3" class="st6" width="9.9" height="10.6"/>
			</g>
		</g>
		<g transform="translate(477.77540436902575 0)">
			<g>
				<rect x="-5.8" y="-3" class="st4" width="11.6" height="6.1"/>
			</g>
		</g>
		<g transform="translate(1331.1839133199203 0)">
			<g>
				<rect x="-5.8" y="-3" class="st2" width="11.5" height="6.1"/>
			</g>
		</g>
		<g transform="translate(867.5969824170768 0)">
			<g>
				<rect x="-3" y="-3.3" class="st3" width="6" height="6.6"/>
			</g>
		</g>
		<g transform="translate(898.1300285142239 0)">
			<g>
				<rect x="-4.6" y="-3.4" class="st6" width="9.2" height="6.8"/>
			</g>
		</g>
		<g transform="translate(448.76506107895784 0)">
			<g>
				<rect x="-3.4" y="-4.9" class="st6" width="6.9" height="9.8"/>
			</g>
		</g>
		<g transform="translate(1197.177449048106 0)">
			<g>
				<rect x="-4.9" y="-5.9" class="st4" width="9.8" height="11.7"/>
			</g>
		</g>
		<g transform="translate(1279.3946034869919 0)">
			<g>
				<rect x="-5.7" y="-4.3" class="st5" width="11.4" height="8.7"/>
			</g>
		</g>
		<g transform="translate(266.3778422600241 0)">
			<g>
				<rect x="-5" y="-5" class="st6" width="10.1" height="10"/>
			</g>
		</g>
		<g transform="translate(118.285244109673 0)">
			<g>
				<rect x="-5.1" y="-3.6" class="st4" width="10.3" height="7.2"/>
			</g>
		</g>
		<g transform="translate(687.0395398232286 0)">
			<g>
				<rect x="-4.3" y="-3.5" class="st5" width="8.6" height="7"/>
			</g>
		</g>
		<g transform="translate(498.7280325081435 0)">
			<g>
				<rect x="-4.6" y="-4.5" class="st2" width="9.2" height="9"/>
			</g>
		</g>
		<g transform="translate(1291.875289634415 0)">
			<g>
				<rect x="-5.8" y="-4.3" class="st2" width="11.6" height="8.5"/>
			</g>
		</g>
		<g transform="translate(688.744692910367 0)">
			<g>
				<rect x="-4.2" y="-6" class="st4" width="8.5" height="11.9"/>
			</g>
		</g>
		<g transform="translate(1358.1573841884317 0)">
			<g>
				<rect x="-4.8" y="-4.3" class="st5" width="9.6" height="8.7"/>
			</g>
		</g>
		<g transform="translate(964.0593481924399 0)">
			<g>
				<rect x="-4.5" y="-4.7" class="st2" width="9" height="9.3"/>
			</g>
		</g>
		<g transform="translate(130.6703597059211 0)">
			<g>
				<rect x="-4.3" y="-4.8" class="st3" width="8.7" height="9.6"/>
			</g>
		</g>
		<g transform="translate(122.16552882706677 0)">
			<g>
				<rect x="-5.4" y="-4.7" class="st4" width="10.8" height="9.4"/>
			</g>
		</g>
		<g transform="translate(1308.3952380789456 0)">
			<g>
				<rect x="-5.2" y="-4.2" class="st6" width="10.4" height="8.5"/>
			</g>
		</g>
		<g transform="translate(1239.3142776824814 0)">
			<g>
				<rect x="-5.6" y="-5.1" class="st5" width="11.3" height="10.2"/>
			</g>
		</g>
		<g transform="translate(360.00583401861155 0)">
			<g>
				<rect x="-4.3" y="-3.1" class="st5" width="8.6" height="6.2"/>
			</g>
		</g>
	</g>
	<g transform="translate(0 -29.910938920160334)">
		<g transform="translate(1413.7135177560037 0)">
			<g>
				<rect x="-4.2" y="-5.7" class="st2" width="8.4" height="11.4"/>
			</g>
		</g>
		<g transform="translate(38.39745940820516 0)">
			<g>
				<rect x="-3.6" y="-3.3" class="st3" width="7.2" height="6.7"/>
			</g>
		</g>
		<g transform="translate(166.80905285253888 0)">
			<g>
				<rect x="-3.4" y="-5" class="st4" width="6.8" height="10.1"/>
			</g>
		</g>
		<g transform="translate(1085.2015208628384 0)">
			<g>
				<rect x="-3.9" y="-4.2" class="st5" width="7.9" height="8.4"/>
			</g>
		</g>
		<g transform="translate(74.43500656802549 0)">
			<g>
				<rect x="-5" y="-5.3" class="st6" width="9.9" height="10.6"/>
			</g>
		</g>
		<g transform="translate(477.77540436902575 0)">
			<g>
				<rect x="-5.8" y="-3" class="st4" width="11.6" height="6.1"/>
			</g>
		</g>
		<g transform="translate(1331.1839133199203 0)">
			<g>
				<rect x="-5.8" y="-3" class="st2" width="11.5" height="6.1"/>
			</g>
		</g>
		<g transform="translate(867.5969824170768 0)">
			<g>
				<rect x="-3" y="-3.3" class="st3" width="6" height="6.6"/>
			</g>
		</g>
		<g transform="translate(898.1300285142239 0)">
			<g>
				<rect x="-4.6" y="-3.4" class="st6" width="9.2" height="6.8"/>
			</g>
		</g>
		<g transform="translate(448.76506107895784 0)">
			<g>
				<rect x="-3.4" y="-4.9" class="st6" width="6.9" height="9.8"/>
			</g>
		</g>
		<g transform="translate(1197.177449048106 0)">
			<g>
				<rect x="-4.9" y="-5.9" class="st4" width="9.8" height="11.7"/>
			</g>
		</g>
		<g transform="translate(1279.3946034869919 0)">
			<g>
				<rect x="-5.7" y="-4.3" class="st5" width="11.4" height="8.7"/>
			</g>
		</g>
		<g transform="translate(266.3778422600241 0)">
			<g>
				<rect x="-5" y="-5" class="st6" width="10.1" height="10"/>
			</g>
		</g>
		<g transform="translate(118.285244109673 0)">
			<g>
				<rect x="-5.1" y="-3.6" class="st4" width="10.3" height="7.2"/>
			</g>
		</g>
		<g transform="translate(687.0395398232286 0)">
			<g>
				<rect x="-4.3" y="-3.5" class="st5" width="8.6" height="7"/>
			</g>
		</g>
		<g transform="translate(498.7280325081435 0)">
			<g>
				<rect x="-4.6" y="-4.5" class="st2" width="9.2" height="9"/>
			</g>
		</g>
		<g transform="translate(1291.875289634415 0)">
			<g>
				<rect x="-5.8" y="-4.3" class="st2" width="11.6" height="8.5"/>
			</g>
		</g>
		<g transform="translate(688.744692910367 0)">
			<g>
				<rect x="-4.2" y="-6" class="st4" width="8.5" height="11.9"/>
			</g>
		</g>
		<g transform="translate(1358.1573841884317 0)">
			<g>
				<rect x="-4.8" y="-4.3" class="st5" width="9.6" height="8.7"/>
			</g>
		</g>
		<g transform="translate(964.0593481924399 0)">
			<g>
				<rect x="-4.5" y="-4.7" class="st2" width="9" height="9.3"/>
			</g>
		</g>
		<g transform="translate(130.6703597059211 0)">
			<g>
				<rect x="-4.3" y="-4.8" class="st3" width="8.7" height="9.6"/>
			</g>
		</g>
		<g transform="translate(122.16552882706677 0)">
			<g>
				<rect x="-5.4" y="-4.7" class="st4" width="10.8" height="9.4"/>
			</g>
		</g>
		<g transform="translate(1308.3952380789456 0)">
			<g>
				<rect x="-5.2" y="-4.2" class="st6" width="10.4" height="8.5"/>
			</g>
		</g>
		<g transform="translate(1239.3142776824814 0)">
			<g>
				<rect x="-5.6" y="-5.1" class="st5" width="11.3" height="10.2"/>
			</g>
		</g>
		<g transform="translate(360.00583401861155 0)">
			<g>
				<rect x="-4.3" y="-3.1" class="st5" width="8.6" height="6.2"/>
			</g>
		</g>
	</g>
</g>
<path class="st0" d="z"/>
</svg>
