<svg width="1263" height="573" viewBox="0 0 1263 573" fill="none" xmlns="http://www.w3.org/2000/svg">
<path d="M1013 225.373C866 353.373 591 225.373 676.5 97.3729C784.788 -64.7416 1017.5 438.873 586.5 358.373C241.7 293.973 -233.667 415.039 -338 571.373" stroke="#FFCD43" stroke-width="5"/>
<path d="M1260.33 115.472L1034.83 170.691L1105.86 260.017L1260.33 115.472Z" fill="#FFCF6F" stroke="#FFCF6F" stroke-miterlimit="10"/>
<path d="M984.846 72.5115L1022.59 150.657L1257.67 114.579L984.846 72.5115Z" fill="#F8BF4D" stroke="#F8BF4D" stroke-miterlimit="10"/>
<path d="M1034.83 170.691L1003.16 234.373L1065.2 210.968L1034.83 170.691Z" fill="#D6270B" stroke="#D6270B" stroke-miterlimit="10"/>
<path d="M1034.83 170.691L1146.91 142.858L1259 115.024L1022.59 150.656L1004.29 231.217C1014.47 211.042 1024.65 190.866 1034.83 170.691Z" fill="#EF7F1F" stroke="#EF7F1F" stroke-miterlimit="10"/>
</svg>
