<?xml version="1.0" encoding="utf-8"?>
<!-- Generator: Adobe Illustrator 23.1.0, SVG Export Plug-In . SVG Version: 6.00 Build 0)  -->
<svg version="1.1" id="Layer_1" xmlns="http://www.w3.org/2000/svg" xmlns:xlink="http://www.w3.org/1999/xlink" x="0px" y="0px"
	 viewBox="0 0 1440 4502" style="enable-background:new 0 0 1440 4502;" xml:space="preserve">
<style type="text/css">
	.st0{clip-path:url(#SVGID_2_);fill:#FFCD43;}
	.st1{clip-path:url(#SVGID_2_);fill:#8180F1;}
	.st2{clip-path:url(#SVGID_2_);fill:#F6663F;}
	.st3{clip-path:url(#SVGID_4_);fill:#FFCD43;}
	.st4{clip-path:url(#SVGID_4_);fill:#8180F1;}
	.st5{clip-path:url(#SVGID_4_);fill:#F6663F;}
	.st6{clip-path:url(#SVGID_6_);fill:#FFCD43;}
	.st7{clip-path:url(#SVGID_6_);fill:#8180F1;}
	.st8{clip-path:url(#SVGID_6_);fill:#F6663F;}
	.st9{clip-path:url(#SVGID_8_);fill:#FFCD43;}
	.st10{clip-path:url(#SVGID_8_);fill:#8180F1;}
	.st11{clip-path:url(#SVGID_8_);fill:#F6663F;}
	.st12{clip-path:url(#SVGID_10_);fill:#FFCD43;}
	.st13{clip-path:url(#SVGID_10_);fill:#8180F1;}
	.st14{clip-path:url(#SVGID_10_);fill:#F6663F;}
	.st15{clip-path:url(#SVGID_12_);fill:#FFCD43;}
	.st16{clip-path:url(#SVGID_12_);fill:#8180F1;}
	.st17{clip-path:url(#SVGID_12_);fill:#F6663F;}
</style>
<g>
	<g>
		<defs>
			<rect id="SVGID_1_" x="1065.2" y="2412" width="979.6" height="1960"/>
		</defs>
		<clipPath id="SVGID_2_">
			<use xlink:href="#SVGID_1_"  style="overflow:visible;"/>
		</clipPath>
		<polygon class="st0" points="1171.1,2536.8 1187.4,2525.7 1198.6,2532.4 1182.3,2543.5 		"/>
		<polygon class="st0" points="1917.6,2543.3 1895.6,2537.5 1901.5,2528.3 1923.5,2534.2 		"/>
		<polygon class="st1" points="1172.1,2723.8 1161.1,2710.3 1174.8,2705.7 1185.8,2719.2 		"/>
		<polygon class="st2" points="1855.2,3329.2 1879.8,3322.4 1883.5,3328 1858.9,3334.8 		"/>
		<polygon class="st1" points="1675.6,2810.4 1672,2806 1694.4,2798.6 1698,2803 		"/>
		<polygon class="st1" points="1227.1,3169.9 1231,3165.6 1252.8,3173.8 1248.9,3178 		"/>
		<polygon class="st0" points="1941.1,2819.7 1948.7,2822.8 1940.4,2831.1 1932.8,2828 		"/>
		<polygon class="st0" points="1957.9,4080.2 1976.1,4070.4 1986.1,4077.9 1967.9,4087.8 		"/>
		<polygon class="st1" points="1697.6,3820.2 1705.3,3820.2 1705.4,3836.4 1697.7,3836.4 		"/>
		<polygon class="st1" points="1403.5,3400.5 1407.6,3404.7 1386.3,3413.4 1382.1,3409.2 		"/>
		<polygon class="st0" points="1563.2,3967.1 1555.4,3970 1547.6,3961.5 1555.4,3958.5 		"/>
		<polygon class="st0" points="1463,2974.3 1485,2968.5 1479.1,2959.4 1457.1,2965.2 		"/>
		<polygon class="st2" points="1525.4,3760.2 1500.8,3753.5 1497.1,3759 1521.7,3765.8 		"/>
		<polygon class="st1" points="1705,3241.4 1708.6,3237.1 1686.2,3229.6 1682.6,3234 		"/>
		<polygon class="st0" points="1439.5,3250.7 1431.9,3253.8 1440.2,3262.2 1447.8,3259 		"/>
		<polygon class="st2" points="1128.2,4027.8 1156.2,4017 1160,4021.1 1132.1,4031.9 		"/>
	</g>
	<g>
		<defs>
			<rect id="SVGID_3_" x="-467.1" y="2593.7" width="979.6" height="1960"/>
		</defs>
		<clipPath id="SVGID_4_">
			<use xlink:href="#SVGID_3_"  style="overflow:visible;"/>
		</clipPath>
		<polygon class="st3" points="-361.2,2718.4 -344.9,2707.3 -333.7,2714.1 -350,2725.2 		"/>
		<polygon class="st3" points="385.3,2724.9 363.3,2719.1 369.2,2710 391.2,2715.8 		"/>
		<polygon class="st4" points="-360.2,2905.4 -371.2,2891.9 -357.5,2887.3 -346.5,2900.9 		"/>
		<polygon class="st5" points="322.8,3510.9 347.5,3504.1 351.2,3509.6 326.6,3516.4 		"/>
		<polygon class="st4" points="143.2,2992.1 139.6,2987.7 162.1,2980.2 165.7,2984.6 		"/>
		<polygon class="st4" points="-305.3,3351.5 -301.4,3347.2 -279.5,3355.4 -283.4,3359.7 		"/>
		<polygon class="st3" points="408.7,3001.3 416.4,3004.4 408.1,3012.8 400.5,3009.7 		"/>
		<polygon class="st3" points="425.6,4261.8 443.8,4252 453.8,4259.5 435.6,4269.4 		"/>
		<polygon class="st4" points="165.2,4001.9 173,4001.8 173.1,4018 165.4,4018.1 		"/>
		<polygon class="st4" points="-128.8,3582.2 -124.7,3586.4 -146,3595 -150.2,3590.8 		"/>
		<polygon class="st3" points="30.9,4148.7 23.1,4151.6 15.3,4143.1 23.1,4140.2 		"/>
		<polygon class="st3" points="-69.3,3155.9 -47.3,3150.1 -53.2,3141 -75.2,3146.8 		"/>
		<polygon class="st5" points="-6.9,3941.9 -31.6,3935.1 -35.3,3940.6 -10.6,3947.4 		"/>
		<polygon class="st4" points="172.7,3423.1 176.3,3418.7 153.9,3411.2 150.3,3415.6 		"/>
		<polygon class="st3" points="-92.8,3432.3 -100.4,3435.4 -92.2,3443.8 -84.5,3440.7 		"/>
		<polygon class="st5" points="-404.1,4209.4 -376.1,4198.6 -372.3,4202.7 -400.3,4213.5 		"/>
	</g>
	<g>
		<defs>
			
				<rect id="SVGID_5_" x="-1412.3" y="1829" transform="matrix(0.9787 -0.2055 0.2055 0.9787 -485.7884 -39.3443)" width="1960" height="979.6"/>
		</defs>
		<clipPath id="SVGID_6_">
			<use xlink:href="#SVGID_5_"  style="overflow:visible;"/>
		</clipPath>
		<polygon class="st6" points="325.8,1767.2 340,1780.9 335.7,1793.3 321.5,1779.6 		"/>
		<polygon class="st6" points="472.9,2499.2 474,2476.4 484.2,2480.3 483,2503.1 		"/>
		<polygon class="st7" points="143,1806.7 154,1793.2 161.3,1805.6 150.3,1819.2 		"/>
		<polygon class="st8" points="-309.1,2599.6 -297.4,2622.3 -302,2627.1 -313.8,2604.4 		"/>
		<polygon class="st7" points="161.7,2317.2 165.3,2312.8 177.2,2333.2 173.6,2337.6 		"/>
		<polygon class="st7" points="-282.2,1952.1 -277.2,1955.1 -280.8,1978.1 -285.8,1975.2 		"/>
		<polygon class="st6" points="207.2,2578.9 205.7,2587 195.9,2580.7 197.3,2572.5 		"/>
		<polygon class="st6" points="-1023,2854.5 -1009.6,2870.3 -1014.9,2881.6 -1028.3,2865.8 		"/>
		<polygon class="st7" points="-822,2546.3 -820.4,2553.9 -836.2,2557.3 -837.8,2549.7 		"/>
		<polygon class="st7" points="-471.7,2172.2 -475,2177.1 -487.9,2158 -484.6,2153.1 		"/>
		<polygon class="st6" points="-993.4,2444.9 -997.8,2437.9 -991.1,2428.5 -986.6,2435.6 		"/>
		<polygon class="st6" points="-42.4,2142.8 -32.2,2163.2 -24.4,2155.5 -34.7,2135.2 		"/>
		<polygon class="st8" points="-798.7,2365.5 -797.1,2339.9 -803.3,2337.5 -804.9,2363 		"/>
		<polygon class="st7" points="-254.1,2434.6 -249,2437.2 -246.3,2413.7 -251.4,2411.1 		"/>
		<polygon class="st6" points="-317.7,2176.7 -322.3,2169.9 -328.8,2179.7 -324.2,2186.5 		"/>
		<polygon class="st8" points="-1142.1,2031.7 -1125.8,2056.9 -1129.1,2061.5 -1145.4,2036.3 		"/>
	</g>
	<g>
		<defs>
			
				<rect id="SVGID_7_" x="-563.9" y="52.8" transform="matrix(0.986 -0.1668 0.1668 0.986 -173.3221 2.1153)" width="979.6" height="1960"/>
		</defs>
		<clipPath id="SVGID_8_">
			<use xlink:href="#SVGID_7_"  style="overflow:visible;"/>
		</clipPath>
		<polygon class="st9" points="-84.1,367.9 -69.9,354.2 -57.7,359 -71.9,372.7 		"/>
		<polygon class="st9" points="653,249.8 630.4,247.7 634.7,237.7 657.3,239.8 		"/>
		<polygon class="st10" points="-51.9,552.1 -65,540.6 -52.2,533.9 -39.1,545.3 		"/>
		<polygon class="st11" points="722.6,1035.1 745.8,1024.3 750.3,1029.2 727.2,1040 		"/>
		<polygon class="st10" points="458.9,553.6 454.7,549.8 475.6,538.7 479.8,542.5 		"/>
		<polygon class="st10" points="76.7,982.8 79.8,977.9 102.7,982.3 99.6,987.2 		"/>
		<polygon class="st9" points="722.3,518.4 730.3,520.2 723.5,529.8 715.5,528 		"/>
		<polygon class="st9" points="949.2,1758.5 965.5,1745.7 976.5,1751.5 960.3,1764.2 		"/>
		<polygon class="st10" points="649.1,1545.6 656.7,1544.2 659.6,1560.2 651.9,1561.5 		"/>
		<polygon class="st10" points="289.1,1180.8 293.9,1184.2 274.3,1196.3 269.5,1192.9 		"/>
		<polygon class="st9" points="541.1,1712.8 533.9,1716.9 524.8,1709.8 532,1705.6 		"/>
		<polygon class="st9" points="276.7,750.6 297.4,741.2 290.1,733.2 269.3,742.6 		"/>
		<polygon class="st11" points="469.3,1515.1 443.9,1512.5 441.2,1518.6 466.6,1521.2 		"/>
		<polygon class="st10" points="548.6,970.7 550.7,965.5 538.6,964.9 536.5,970 		"/>
		<polygon class="st9" points="299.7,1027.1 292.7,1031.4 302.2,1038.2 309.2,1033.9 		"/>
		<polygon class="st11" points="122.3,1845.1 148.1,1829.9 152.6,1833.3 126.8,1848.5 		"/>
	</g>
	<g>
		<defs>
			<rect id="SVGID_9_" x="965" y="-488.9" width="979.6" height="1960"/>
		</defs>
		<clipPath id="SVGID_10_">
			<use xlink:href="#SVGID_9_"  style="overflow:visible;"/>
		</clipPath>
		<polygon class="st12" points="1070.9,-364.2 1087.2,-375.3 1098.5,-368.5 1082.1,-357.4 		"/>
		<polygon class="st12" points="1817.4,-357.7 1795.4,-363.5 1801.3,-372.6 1823.3,-366.8 		"/>
		<polygon class="st13" points="1071.9,-177.2 1060.9,-190.7 1074.6,-195.3 1085.6,-181.7 		"/>
		<polygon class="st14" points="1755,428.3 1779.6,421.5 1783.3,427 1758.7,433.8 		"/>
		<polygon class="st13" points="1575.4,-90.5 1571.8,-94.9 1594.2,-102.4 1597.8,-98 		"/>
		<polygon class="st13" points="1126.9,268.9 1130.8,264.6 1152.6,272.8 1148.7,277.1 		"/>
		<polygon class="st12" points="1840.9,-81.3 1848.5,-78.2 1840.2,-69.8 1832.6,-72.9 		"/>
		<polygon class="st12" points="1857.8,1179.2 1875.9,1169.4 1885.9,1176.9 1867.7,1186.8 		"/>
		<polygon class="st13" points="1597.4,919.3 1605.1,919.2 1605.3,935.4 1597.5,935.4 		"/>
		<polygon class="st13" points="1303.3,499.6 1307.4,503.7 1286.1,512.4 1281.9,508.2 		"/>
		<polygon class="st12" points="1463,1066.1 1455.2,1069 1447.4,1060.5 1455.2,1057.6 		"/>
		<polygon class="st12" points="1362.8,73.3 1384.8,67.5 1378.9,58.4 1356.9,64.2 		"/>
		<polygon class="st14" points="1425.2,859.3 1400.6,852.5 1396.9,858 1421.5,864.8 		"/>
		<polygon class="st13" points="1604.8,340.5 1608.4,336.1 1586,328.6 1582.4,333 		"/>
		<polygon class="st12" points="1339.3,349.7 1331.7,352.8 1340,361.2 1347.6,358.1 		"/>
		<polygon class="st14" points="1028,1126.8 1056,1116 1059.9,1120.1 1031.9,1130.9 		"/>
	</g>
	<g>
		<defs>
			
				<rect id="SVGID_11_" x="-105.5" y="3690.2" transform="matrix(0.9993 -3.839587e-02 3.839587e-02 0.9993 -159.8503 36.6586)" width="1960" height="979.6"/>
		</defs>
		<clipPath id="SVGID_12_">
			<use xlink:href="#SVGID_11_"  style="overflow:visible;"/>
		</clipPath>
		<polygon class="st15" points="1714.4,3763.5 1726.1,3779.4 1719.8,3790.9 1708.1,3775 		"/>
		<polygon class="st15" points="1736.5,4509.7 1741.5,4487.5 1750.9,4493.1 1745.9,4515.3 		"/>
		<polygon class="st16" points="1527.5,3771.7 1540.6,3760.2 1545.7,3773.7 1532.6,3785.2 		"/>
		<polygon class="st17" points="948.8,4477.5 956.5,4501.9 951.1,4505.8 943.4,4481.4 		"/>
		<polygon class="st16" points="1460.3,4278.1 1464.5,4274.4 1472.9,4296.5 1468.6,4300.3 		"/>
		<polygon class="st16" points="1083.9,3843.7 1088.3,3847.5 1081,3869.6 1076.6,3865.9 		"/>
		<polygon class="st15" points="1461.2,4543.8 1458.4,4551.5 1449.8,4543.6 1452.6,4535.8 		"/>
		<polygon class="st15" points="202.3,4609.1 212.8,4626.8 205.7,4637.1 195.1,4619.3 		"/>
		<polygon class="st16" points="452.1,4338.9 452.4,4346.6 436.2,4347.4 435.9,4339.6 		"/>
		<polygon class="st16" points="860.2,4028.9 856.2,4033.2 846.7,4012.2 850.7,4007.9 		"/>
		<polygon class="st15" points="300.2,4210.2 297,4202.6 305.2,4194.5 308.4,4202.1 		"/>
		<polygon class="st15" points="1288.4,4072 1295,4093.8 1303.9,4087.5 1297.3,4065.7 		"/>
		<polygon class="st17" points="505.4,4164.6 511.3,4139.7 505.6,4136.2 499.8,4161.1 		"/>
		<polygon class="st16" points="1030.7,4324.1 1035.3,4327.5 1041.9,4304.8 1037.3,4301.4 		"/>
		<polygon class="st15" points="1011.3,4059.2 1007.9,4051.7 999.9,4060.3 1003.3,4067.8 		"/>
		<polygon class="st17" points="222.9,3777.9 234.7,3805.5 230.7,3809.5 218.9,3781.9 		"/>
	</g>
</g>
</svg>
